PathFileType	4	(X/Y/Z)	C:/Users/opensim2020/Desktop/walking_exp_matlab/subject06_walking13_straight_03_cyclic.trc	
DataRate	CameraRate	NumFrames	NumMarkers	Units	OrigDataRate	OrigDataStartFrame	OrigNumFrames	
100.00	100.00	6	50	mm	100.00	2221	111	
Frame#	Time	LFHD			RFHD			LBHD			RBHD			C7			T10			CLAV			STRN			RBAK			LSHO			LUPA			LELB			LFRM			LWRA			LWRB			LFIN			RSHO			RUPA			RELB			RFRM			RWRA			RWRB			RFIN			LASI			RASI			LPSI			RPSI			LTHI			LKNE			LTIB			LANK			LHEE			LTOE			RTHI			RKNE			RTIB			RANK			RHEE			RTOE			*39			*40			*41			*42			*43			*44			*45			*46			*47			*48			*49			
		X1	Y1	Z1	X2	Y2	Z2	X3	Y3	Z3	X4	Y4	Z4	X5	Y5	Z5	X6	Y6	Z6	X7	Y7	Z7	X8	Y8	Z8	X9	Y9	Z9	X10	Y10	Z10	X11	Y11	Z11	X12	Y12	Z12	X13	Y13	Z13	X14	Y14	Z14	X15	Y15	Z15	X16	Y16	Z16	X17	Y17	Z17	X18	Y18	Z18	X19	Y19	Z19	X20	Y20	Z20	X21	Y21	Z21	X22	Y22	Z22	X23	Y23	Z23	X24	Y24	Z24	X25	Y25	Z25	X26	Y26	Z26	X27	Y27	Z27	X28	Y28	Z28	X29	Y29	Z29	X30	Y30	Z30	X31	Y31	Z31	X32	Y32	Z32	X33	Y33	Z33	X34	Y34	Z34	X35	Y35	Z35	X36	Y36	Z36	X37	Y37	Z37	X38	Y38	Z38	X39	Y39	Z39	X40	Y40	Z40	X41	Y41	Z41	X42	Y42	Z42	X43	Y43	Z43	X44	Y44	Z44	X45	Y45	Z45	X46	Y46	Z46	X47	Y47	Z47	X48	Y48	Z48	X49	Y49	Z49	X50	Y50	Z50	

14	0.130	-1047.28455	-342.66763	1668.05164	-916.94666	-356.67825	1651.36279	-1064.58301	-475.49088	1617.53271	-936.41168	-488.10825	1605.74524	-1011.43616	-486.12543	1457.79138	-1004.44623	-530.64154	1130.04761	-1005.22491	-377.23047	1377.57239	-1013.69019	-341.32520	1202.18896	-935.72095	-567.58105	1289.25537	-1169.76245	-425.57935	1412.88696	-1238.69641	-422.85983	1209.68506	-1247.72729	-421.62067	1095.78906	-1274.74707	-345.35059	969.22644	-1244.77197	-231.12915	903.62897	-1271.12964	-285.90387	865.76245	-1281.17334	-208.86584	818.83551	-845.91656	-429.55179	1408.79504	-760.03882	-479.69794	1212.74500	-746.13959	-474.67166	1090.12732	-729.72644	-456.35507	971.02643	-763.30902	-392.10690	833.97180	-721.86292	-445.51187	834.04700	-721.68805	-406.84277	758.53265	-1117.67957	-359.23868	965.35150	-896.97601	-349.44214	975.20874	-1082.74487	-516.88440	990.78864	-914.96051	-502.42709	999.20679	-1178.28442	-399.51852	648.43744	-1166.49414	-373.48630	487.29694	-1157.53833	-555.13452	321.70944	-1121.57275	-676.50128	198.73993	-1069.87598	-709.62793	210.39873	-1139.14343	-603.82483	74.92827	-841.01355	-373.58810	640.96680	-871.07880	-354.48010	518.28680	-878.19330	-390.87686	251.52710	-929.86304	-397.31161	66.81284	-975.99237	-435.59830	43.18423	-931.48297	-244.17258	35.12605	-997.29883	-447.55969	1706.43286																														 
15	0.140	-1046.95740	-333.39560	1668.96326	-916.63361	-347.06088	1652.31567	-1064.01355	-466.20212	1618.36694	-935.73663	-478.77554	1606.67578	-1010.57526	-476.74326	1458.65747	-1003.45380	-521.49683	1130.99780	-1004.69434	-367.93167	1378.47656	-1013.07062	-332.10440	1203.11267	-934.26984	-558.33685	1290.52124	-1169.16333	-416.74088	1413.84778	-1237.97412	-415.32834	1210.49707	-1246.97876	-415.18335	1096.64136	-1274.16931	-343.46573	967.05444	-1244.82275	-231.89426	896.61517	-1270.70264	-288.52646	861.03381	-1281.30591	-213.52397	811.04803	-845.26208	-419.69293	1409.77625	-758.82983	-467.45480	1213.32629	-744.44666	-460.27689	1090.81982	-728.11865	-439.09238	972.22168	-762.16626	-371.63943	836.79266	-720.54102	-424.53131	835.27649	-720.61035	-384.22638	761.05627	-1116.43420	-350.02286	966.60364	-895.92285	-341.43710	975.58240	-1082.27991	-507.84271	992.17365	-914.66486	-493.59793	999.88324	-1177.93701	-386.41620	650.08264	-1165.33911	-357.52441	489.44086	-1156.83704	-535.41669	320.16953	-1121.26746	-654.01331	194.43240	-1069.68054	-687.87402	204.85640	-1138.99353	-576.75305	73.92754	-840.70819	-368.50677	640.89545	-870.57642	-350.98581	517.87592	-878.38348	-390.29764	251.64024	-930.06171	-397.43884	66.89004	-976.13452	-435.82654	43.30673	-931.42841	-244.37038	35.11563	-996.87592	-438.24738	1707.35364																														 
16	0.150	-1046.60620	-324.04196	1669.72351	-916.32532	-337.65353	1653.19690	-1063.52917	-456.88943	1619.09534	-935.42603	-469.08572	1607.66479	-1009.68945	-467.53418	1459.51184	-1002.58136	-512.44012	1131.86121	-1004.08154	-358.70090	1379.29163	-1012.45374	-322.89468	1203.88135	-933.01990	-548.95453	1291.47803	-1168.53735	-408.01440	1414.59363	-1237.24097	-407.79803	1211.14429	-1246.30713	-408.68011	1097.28406	-1273.64771	-341.88577	964.87158	-1244.91174	-233.14848	889.61096	-1270.21167	-291.52872	856.42267	-1281.41357	-219.00529	803.28937	-844.68335	-410.03467	1410.60559	-757.38623	-454.91525	1213.96375	-742.72852	-445.91519	1091.50342	-726.43115	-421.81561	973.51337	-761.19531	-351.56183	839.83606	-718.82434	-403.60632	837.08075	-719.33154	-361.44934	763.81824	-1115.10095	-340.79755	967.69391	-894.73041	-333.30750	975.89508	-1081.92505	-498.83820	993.32098	-914.10663	-485.50867	1000.62811	-1177.62988	-373.32663	651.69055	-1164.26892	-341.71088	491.59753	-1156.27002	-515.43011	318.14221	-1120.95911	-630.83838	189.34937	-1069.45959	-665.47839	198.56953	-1138.79285	-549.08105	72.28839	-840.50446	-363.74060	640.81793	-870.11780	-347.31332	517.53467	-878.44397	-389.59711	251.73340	-930.29126	-397.55740	66.98770	-976.42780	-436.44690	43.54927	-931.41083	-244.56340	35.09148	-996.51599	-428.76785	1708.10693																														 
17	0.160	-1046.42639	-314.73083	1670.28101	-915.95245	-328.19318	1653.90222	-1062.98169	-447.58331	1619.73242	-934.79211	-459.65335	1608.35522	-1008.88977	-458.29013	1460.19263	-1001.78638	-503.38977	1132.59546	-1003.56982	-349.49619	1379.95129	-1011.84332	-313.74515	1204.50073	-931.86627	-539.70398	1292.27466	-1167.79834	-399.20670	1414.99536	-1236.59692	-400.41220	1211.68787	-1245.54919	-402.30469	1097.83093	-1273.10974	-340.42850	962.75598	-1244.98865	-234.73476	882.67694	-1269.47400	-295.00427	852.20551	-1281.47742	-224.94366	795.77612	-844.06104	-400.42453	1411.36316	-756.02692	-442.42264	1214.40784	-741.08020	-431.52170	1092.20691	-724.67700	-404.55075	974.89777	-760.02655	-331.06256	842.98291	-717.02142	-382.59488	839.08722	-717.90961	-338.57034	766.90723	-1113.76672	-331.65906	968.65179	-893.60419	-325.44095	976.01465	-1081.53845	-489.88989	994.40527	-913.73724	-477.34125	1001.18488	-1177.66785	-360.44495	653.31714	-1163.28186	-326.04633	493.72476	-1155.84595	-495.26657	315.64825	-1120.51013	-607.07019	183.59300	-1069.05579	-642.49316	191.59668	-1138.27222	-520.50360	70.18487	-840.29004	-358.99594	640.70032	-869.27533	-343.79468	517.26532	-878.56525	-388.68857	251.84044	-930.47913	-397.65625	67.09246	-976.52435	-436.15674	43.44913	-931.39685	-244.70279	35.03088	-996.05872	-419.42142	1708.82898																														 
18	0.170	-1046.12854	-305.37485	1670.75659	-915.77393	-318.62897	1654.50806	-1062.50842	-438.38901	1620.26428	-934.24420	-450.24606	1608.98804	-1008.08899	-449.14783	1460.82080	-1001.06213	-494.42731	1133.19617	-1003.03412	-340.33356	1380.44922	-1011.26965	-304.60013	1204.98108	-930.69824	-530.67511	1292.81982	-1167.18445	-390.42572	1415.52332	-1236.26379	-392.90878	1212.17480	-1245.09351	-395.96884	1098.23364	-1272.38245	-339.02328	960.80688	-1245.04297	-236.78555	875.90271	-1268.72888	-298.68707	848.10895	-1281.38147	-231.54985	788.60089	-843.49091	-391.03751	1411.97974	-754.92670	-430.18997	1214.84875	-739.41461	-417.13498	1092.92224	-722.90863	-387.25394	976.42975	-758.54138	-310.64078	846.52582	-715.21460	-361.63400	841.34662	-716.40283	-315.67413	770.36835	-1112.44348	-322.57782	969.44550	-892.50195	-317.27267	976.07043	-1081.27502	-480.96133	995.18567	-913.42462	-469.32474	1001.65997	-1177.33862	-347.32901	654.97614	-1162.38281	-310.53885	495.89508	-1155.51013	-474.88544	312.74606	-1120.08801	-582.56097	177.32137	-1068.94421	-618.38043	183.85504	-1137.92993	-490.32272	68.45583	-840.12866	-354.23026	640.57758	-868.95453	-340.17007	516.84912	-878.50989	-387.38559	251.90799	-930.65479	-397.56992	67.15348	-976.68524	-436.21173	43.52148	-931.42432	-244.86264	34.88277	-995.76483	-409.92667	1709.37378																														 
19	0.180	-1045.86633	-296.12094	1671.01587	-915.48096	-309.05386	1654.94348	-1062.01428	-429.02338	1620.64221	-933.82788	-440.73474	1609.58813	-1007.36572	-439.88174	1461.15210	-1000.37207	-485.45215	1133.65332	-1002.56653	-331.20636	1380.84045	-1010.64386	-295.44907	1205.33765	-929.68567	-521.31573	1293.14001	-1166.59094	-381.62405	1415.75879	-1235.49524	-385.42401	1212.34875	-1244.64966	-389.44705	1098.47473	-1272.10547	-337.84915	958.76563	-1244.92981	-239.26511	869.24725	-1268.10547	-302.77832	844.37439	-1281.21875	-238.52100	781.79749	-842.95648	-381.59583	1412.50012	-753.70575	-417.85791	1215.20569	-737.74561	-402.79843	1093.66675	-721.18689	-370.01266	978.04492	-757.15778	-290.26999	850.25507	-713.10870	-340.91699	844.01910	-714.64154	-292.96844	774.16382	-1111.06519	-313.83569	969.94763	-891.41602	-309.09805	976.18585	-1081.11157	-471.96066	995.75299	-913.14569	-461.38373	1002.07166	-1177.23779	-334.53979	656.57153	-1161.61169	-295.27173	497.98065	-1155.03748	-454.34201	309.58411	-1119.92029	-557.14514	170.46124	-1068.82373	-593.99365	175.68376	-1137.00146	-461.28741	65.41830	-840.06146	-349.44632	640.43005	-868.35803	-336.38501	516.50391	-878.31378	-385.83051	251.91418	-930.76587	-397.56250	67.21535	-976.81506	-436.25211	43.60837	-930.93335	-245.01511	35.11889	-995.47253	-400.53561	1709.82471																														 
